<?xml version="1.0" standalone="no"?>
<!DOCTYPE svg PUBLIC "-//W3C//DTD SVG 20010904//EN"
 "http://www.w3.org/TR/2001/REC-SVG-20010904/DTD/svg10.dtd">
<svg version="1.0" xmlns="http://www.w3.org/2000/svg"
 width="360.000000pt" height="360.000000pt" viewBox="0 0 360.000000 360.000000"
 preserveAspectRatio="xMidYMid meet">

<g transform="translate(0.000000,360.000000) scale(0.100000,-0.100000)"
fill="#000000" stroke="none">
<path d="M1696 2644 c-35 -11 -66 -32 -106 -72 -74 -75 -90 -121 -90 -264 l0
-108 -28 0 c-15 0 -33 -5 -40 -12 -17 -17 -17 -599 0 -616 17 -17 719 -17 736
0 17 17 17 599 0 616 -7 7 -26 12 -44 12 l-32 0 -3 118 c-4 104 -7 123 -32
174 -65 133 -218 198 -361 152z m208 -127 c60 -47 76 -90 76 -212 l0 -105
-191 0 -192 0 5 108 c6 116 16 148 65 194 40 39 70 48 139 45 49 -2 69 -8 98
-30z m-55 -482 c55 -28 66 -123 18 -162 -20 -16 -21 -24 -15 -73 3 -30 6 -72
7 -92 l1 -38 -61 0 -61 0 7 96 c7 90 6 97 -14 110 -11 8 -23 30 -27 49 -16 89
65 152 145 110z"/>
<path d="M1335 2430 c-60 -16 -135 -37 -165 -48 l-55 -19 0 -334 c0 -294 2
-343 19 -409 50 -200 176 -383 358 -520 97 -73 259 -154 308 -154 49 0 211 81
308 154 180 135 306 317 358 515 16 61 19 112 19 409 l0 339 -55 19 c-70 24
-282 80 -286 75 -2 -2 -1 -24 2 -49 6 -44 9 -47 43 -53 20 -3 75 -18 124 -32
l87 -26 0 -253 c0 -139 -5 -287 -11 -330 -37 -268 -214 -496 -496 -638 -40
-20 -82 -36 -93 -36 -26 0 -148 61 -223 112 -199 135 -336 345 -366 562 -6 43
-11 191 -11 330 l0 253 88 26 c48 14 101 28 119 32 29 6 31 10 35 53 3 26 4
48 4 49 -1 1 -50 -12 -111 -27z"/>
</g>
</svg>
